<svg width="292" height="180" viewBox="0 0 292 180" fill="none" xmlns="http://www.w3.org/2000/svg">
<path fill-rule="evenodd" clip-rule="evenodd" d="M159.71 101.175V99.5485H182.239V100.027V100.744V101.223H176.882V130.544H175.877L175.781 130.161C175.16 127.243 172.146 126.239 170.616 126.239H170.376H170.042C167.507 126.331 165.239 127.4 162.895 128.504L162.628 128.63C162.389 128.726 162.161 128.821 161.934 128.917C161.707 129.013 161.48 129.109 161.241 129.204C158.753 130.4 156.075 131.452 152.822 131.452C135.411 131.452 122.688 116.433 122.688 95.2437C122.688 69.2711 139.716 56.6913 152.105 56.6913C154.831 56.6913 156.601 57.2175 158.992 57.9828L159.997 58.2698C160.225 58.3459 160.464 58.427 160.711 58.5113L160.714 58.5122L160.715 58.5123C161.244 58.6925 161.818 58.8877 162.436 59.0829L163.393 59.3221C164.063 59.4656 164.924 59.6091 165.928 59.6569C167.985 59.7047 170.376 59.1786 171.381 56.787L171.524 56.5H172.337H172.577V82.8074H172.337H171.477L171.381 82.4248C166.98 64.9184 161.575 58.4133 152.153 58.3654H152.057C144.308 58.3654 141.725 63.3399 140.338 66.0185C136.655 73.1454 135.89 89.4082 135.89 94.3827C135.89 108.302 137.133 114.281 139.477 120.499C141.869 126.86 146.03 129.922 152.296 129.826C158.084 129.73 165.498 127.243 165.498 116.098V101.175H159.71ZM290.433 104.236V103.806H291.82V130.113H240.114V128.391H246.428V60.2787H239.397H233.466V111.65C233.609 120.642 227.63 131.5 214.572 131.5C195.105 131.5 188.456 121.36 188.456 108.254V60.2787H181.76V59.3221V58.6046H206.871V59.3221V60.2787H200.414V114.233C200.414 114.807 200.844 129.061 215.003 129.587C218.877 129.73 223.134 128.2 226.147 125.33C228.635 122.986 231.505 118.49 231.648 111.172V60.2787H226.1V59.3221V58.6046H239.397H240.832H241.31H288.903V82.7118H287.755L287.659 82.3291C283.233 59.9246 272.987 60.1353 262.488 60.3512C262.093 60.3593 261.699 60.3675 261.304 60.3744C260.538 60.4222 259.295 60.4222 258.529 60.4222V92.7565H259.056H259.114C264.891 92.7566 271.927 92.7568 273.453 78.7418L273.501 78.3113H274.649V109.163H273.501L273.453 108.732C272.339 94.3446 265.776 94.4128 259.969 94.4733L259.858 94.4744C259.718 94.4759 259.578 94.4773 259.438 94.4784H258.482V128.439H259.056C259.264 128.439 259.511 128.442 259.792 128.445C263.836 128.491 275.047 128.62 282.828 121.599C287.563 117.342 290.098 111.506 290.433 104.236ZM85.7632 56.8827C71.0788 56.8827 54.9596 71.567 54.9596 94.0001C54.9596 116.433 71.605 131.309 85.7632 131.309C99.9214 131.309 116.567 116.433 116.567 94.0001C116.519 71.567 100.448 56.8827 85.7632 56.8827ZM102.887 91.2259V91.7042V92.039V92.326V92.7565V92.9V93.3305V93.4261V93.9044V94.2871C102.887 98.4484 102.504 114.472 98.2951 122.46C95.9035 127.1 91.2638 129.539 85.6675 129.539C80.0712 129.539 75.3837 127.1 73.0399 122.46C68.8308 114.472 68.4959 98.4484 68.4959 94.2871V93.9044V93.4261V93.3305V92.9V92.7565V92.326V92.039V91.7042V91.2259V91.0345C68.6394 84.6251 69.4526 72.6193 73.0399 65.5881C75.9098 59.7526 81.7453 58.509 85.6675 58.509C89.6375 58.509 95.4252 59.7526 98.2951 65.5881C101.882 72.6193 102.648 84.6251 102.839 91.0345C102.887 91.0824 102.887 91.178 102.887 91.2259ZM47.4969 58.6046H60.6506H61.1289V60.2309H55.2934H54.6716L33.6735 130.496H33.2909L6.88776 60.2309H6.21812H0V59.2743V58.6046H23.7724V59.2743V60.2309H18.75H18.4152L37.2609 112.463L52.854 60.2309H47.0186V58.6046H47.4969Z" fill="url(#paint0_linear_3_6)"/>
<defs>
<linearGradient id="paint0_linear_3_6" x1="7.89959" y1="69.4808" x2="282.174" y2="134.927" gradientUnits="userSpaceOnUse">
<stop stop-color="#E40203"/>
<stop offset="0.121095" stop-color="#FF8B01"/>
<stop offset="0.248763" stop-color="#FFED00"/>
<stop offset="0.347212" stop-color="#008025"/>
<stop offset="0.410983" stop-color="#004DFF"/>
<stop offset="0.513243" stop-color="#750586"/>
<stop offset="0.621951" stop-color="#FEAFC7"/>
<stop offset="0.736203" stop-color="#75D7EF"/>
<stop offset="0.85549" stop-color="#613A15"/>
<stop offset="1"/>
</linearGradient>
</defs>
</svg>
