<svg width="375" height="79" viewBox="0 0 375 79" fill="none" xmlns="http://www.w3.org/2000/svg">
<g clip-path="url(#clip0_6_2)">
<path fill-rule="evenodd" clip-rule="evenodd" d="M201.941 47.0575V45.3444H225.672V45.8482V46.604V47.1078H220.029V77.9925H218.97L218.869 77.5894C218.215 74.5161 215.04 73.458 213.429 73.458H213.176H212.824C210.154 73.5551 207.765 74.681 205.296 75.8445L205.015 75.9771C204.763 76.0779 204.523 76.1786 204.284 76.2794C204.045 76.3801 203.806 76.481 203.554 76.5818C200.933 77.8413 198.112 78.9498 194.686 78.9498C176.346 78.9498 162.945 63.1295 162.945 40.81C162.945 13.4522 180.881 0.201531 193.931 0.201531C196.802 0.201531 198.666 0.75574 201.185 1.56186L202.244 1.86416C202.484 1.94439 202.735 2.02972 202.996 2.11854L202.999 2.11957L203 2.11961C203.557 2.30939 204.162 2.51503 204.813 2.72067L205.821 2.97258C206.526 3.12372 207.433 3.27488 208.491 3.32526C210.658 3.37564 213.176 2.82143 214.235 0.302296L214.385 0H215.242H215.494V27.7105H215.242H214.336L214.235 27.3075C209.599 8.86736 203.906 2.01531 193.981 1.96493H193.88C185.718 1.96493 182.997 7.20473 181.536 10.0262C177.657 17.5332 176.851 34.6633 176.851 39.9031C176.851 54.5645 178.16 60.8623 180.629 67.4121C183.149 74.1129 187.532 77.3375 194.132 77.2367C200.229 77.1359 208.038 74.5161 208.038 62.7769V47.0575H201.941ZM339.636 50.282V49.8286H341.097V77.539H286.633V75.7253H293.284V3.98026H285.878H279.631V58.0913C279.782 67.5632 273.484 79.0001 259.729 79.0001C239.224 79.0001 232.22 68.319 232.22 54.5141V3.98026H225.167V2.9726V2.21687H251.617V2.9726V3.98026H244.816V60.812C244.816 61.4166 245.269 76.4306 260.183 76.9849C264.264 77.136 268.748 75.5237 271.922 72.5007C274.542 70.032 277.565 65.296 277.716 57.5875V3.98026H271.872V2.9726V2.21687H285.878H287.39H287.893H338.025V27.6098H336.815L336.714 27.2067C332.052 3.60726 321.26 3.8292 310.201 4.05663C309.785 4.06517 309.37 4.07372 308.954 4.08102C308.147 4.1314 306.837 4.1314 306.031 4.1314V38.1902H306.586H306.647C312.732 38.1903 320.143 38.1905 321.751 23.428L321.801 22.9746H323.01V55.4714H321.801L321.751 55.0179C320.577 39.863 313.664 39.9348 307.547 39.9985L307.43 39.9997C307.283 40.0013 307.136 40.0028 306.988 40.0039H305.981V75.7756H306.586C306.805 75.7756 307.065 75.7786 307.361 75.7821C311.621 75.8309 323.43 75.9665 331.626 68.5709C336.613 64.0868 339.283 57.9402 339.636 50.282ZM124.051 0.403101C108.583 0.403101 91.6042 15.8706 91.6042 39.5001C91.6042 63.1296 109.137 78.7986 124.051 78.7986C138.964 78.7986 156.497 63.1296 156.497 39.5001C156.447 15.8706 139.519 0.403101 124.051 0.403101ZM142.088 36.5779V37.0818V37.4344V37.7367V38.1902V38.3413V38.7948V38.8955V39.3993V39.8024C142.088 44.1856 141.684 61.0639 137.251 69.4779C134.732 74.3649 129.845 76.9345 123.95 76.9345C118.055 76.9345 113.118 74.3649 110.649 69.4779C106.215 61.0639 105.862 44.1856 105.862 39.8024V39.3993V38.8955V38.7948V38.3413V38.1902V37.7367V37.4344V37.0818V36.5779V36.3763C106.014 29.6251 106.87 16.979 110.649 9.57276C113.672 3.42606 119.818 2.11611 123.95 2.11611C128.132 2.11611 134.228 3.42606 137.251 9.57276C141.029 16.979 141.836 29.6251 142.037 36.3763C142.088 36.4268 142.088 36.5275 142.088 36.5779ZM83.7434 2.21687H97.5987H98.1025V3.92988H91.9558H91.3008L69.1828 77.9421H68.7798L40.9685 3.92988H40.2631H33.7134V2.92222V2.21687H58.7536V2.92222V3.92988H53.4634H53.1107L72.9615 58.9478L89.3863 3.92988H83.2396V2.21687H83.7434Z" fill="url(#paint0_linear_6_2)"/>
</g>
<defs>
<linearGradient id="paint0_linear_6_2" x1="42.0343" y1="13.6731" x2="330.937" y2="82.6099" gradientUnits="userSpaceOnUse">
<stop stop-color="#E40203"/>
<stop offset="0.121095" stop-color="#FF8B01"/>
<stop offset="0.248763" stop-color="#FFED00"/>
<stop offset="0.347212" stop-color="#008025"/>
<stop offset="0.410983" stop-color="#004DFF"/>
<stop offset="0.513243" stop-color="#750586"/>
<stop offset="0.621951" stop-color="#FEAFC7"/>
<stop offset="0.736203" stop-color="#75D7EF"/>
<stop offset="0.85549" stop-color="#613A15"/>
<stop offset="1"/>
</linearGradient>
<clipPath id="clip0_6_2">
<rect width="375" height="79" fill="white"/>
</clipPath>
</defs>
</svg>
